<?xml version="1.0" encoding="UTF-8"?>
<svg width="1000" height="400" xmlns="http://www.w3.org/2000/svg">
  <rect width="100%" height="100%" fill="white"/>
  <polygon points="58.23,110.00 62.95,50.00 83.09,50.00 88.71,170.00 93.66,110.00 100.54,110.00 115.38,50.00 120.55,170.00 127.40,170.00 154.38,110.00 160.00,110.00 168.99,170.00 179.11,170.00 253.30,170.00 385.94,170.00 387.96,170.00 391.11,230.00 394.26,230.00 410.00,170.00 414.04,170.00 443.27,230.00 450.01,290.00 457.66,290.00 463.73,290.00 477.22,350.00 569.39,50.00 573.89,50.00 579.96,110.00 583.33,110.00 615.93,170.00 622.67,110.00 627.17,170.00 633.91,290.00 714.84,170.00 739.57,290.00 768.80,230.00 795.78,230.00 842.99,230.00 847.03,230.00 855.58,170.00 878.06,170.00 900.54,170.00 905.04,230.00 920.77,170.00 950.00,230.00 950.00,350.00 58.23,350.00 58.23,110.00" fill="lightblue" stroke="red" stroke-width="2"/>
  <text x="58.23" y="365" font-size="10" transform="rotate(90,58.23,365)">36m</text><text x="58.23" y="105.00" font-size="10">111m</text><text x="62.95" y="365" font-size="10" transform="rotate(90,62.95,365)">57m</text><text x="62.95" y="45.00" font-size="10">112m</text><text x="83.09" y="365" font-size="10" transform="rotate(90,83.09,365)">147m</text><text x="83.09" y="45.00" font-size="10">112m</text><text x="88.71" y="365" font-size="10" transform="rotate(90,88.71,365)">172m</text><text x="88.71" y="165.00" font-size="10">110m</text><text x="93.66" y="365" font-size="10" transform="rotate(90,93.66,365)">194m</text><text x="93.66" y="105.00" font-size="10">111m</text><text x="100.54" y="365" font-size="10" transform="rotate(90,100.54,365)">224m</text><text x="100.54" y="105.00" font-size="10">111m</text><text x="115.38" y="365" font-size="10" transform="rotate(90,115.38,365)">290m</text><text x="115.38" y="45.00" font-size="10">112m</text><text x="120.55" y="365" font-size="10" transform="rotate(90,120.55,365)">313m</text><text x="120.55" y="165.00" font-size="10">110m</text><text x="127.40" y="365" font-size="10" transform="rotate(90,127.40,365)">344m</text><text x="127.40" y="165.00" font-size="10">110m</text><text x="154.38" y="365" font-size="10" transform="rotate(90,154.38,365)">464m</text><text x="154.38" y="105.00" font-size="10">111m</text><text x="160.00" y="365" font-size="10" transform="rotate(90,160.00,365)">489m</text><text x="160.00" y="105.00" font-size="10">111m</text><text x="168.99" y="365" font-size="10" transform="rotate(90,168.99,365)">529m</text><text x="168.99" y="165.00" font-size="10">110m</text><text x="179.11" y="365" font-size="10" transform="rotate(90,179.11,365)">574m</text><text x="179.11" y="165.00" font-size="10">110m</text><text x="253.30" y="365" font-size="10" transform="rotate(90,253.30,365)">904m</text><text x="253.30" y="165.00" font-size="10">110m</text><text x="385.94" y="365" font-size="10" transform="rotate(90,385.94,365)">1494m</text><text x="385.94" y="165.00" font-size="10">110m</text><text x="387.96" y="365" font-size="10" transform="rotate(90,387.96,365)">1503m</text><text x="387.96" y="165.00" font-size="10">110m</text><text x="391.11" y="365" font-size="10" transform="rotate(90,391.11,365)">1517m</text><text x="391.11" y="225.00" font-size="10">109m</text><text x="394.26" y="365" font-size="10" transform="rotate(90,394.26,365)">1531m</text><text x="394.26" y="225.00" font-size="10">109m</text><text x="410.00" y="365" font-size="10" transform="rotate(90,410.00,365)">1601m</text><text x="410.00" y="165.00" font-size="10">110m</text><text x="414.04" y="365" font-size="10" transform="rotate(90,414.04,365)">1619m</text><text x="414.04" y="165.00" font-size="10">110m</text><text x="443.27" y="365" font-size="10" transform="rotate(90,443.27,365)">1749m</text><text x="443.27" y="225.00" font-size="10">109m</text><text x="450.01" y="365" font-size="10" transform="rotate(90,450.01,365)">1779m</text><text x="450.01" y="285.00" font-size="10">108m</text><text x="457.66" y="365" font-size="10" transform="rotate(90,457.66,365)">1813m</text><text x="457.66" y="285.00" font-size="10">108m</text><text x="463.73" y="365" font-size="10" transform="rotate(90,463.73,365)">1840m</text><text x="463.73" y="285.00" font-size="10">108m</text><text x="477.22" y="365" font-size="10" transform="rotate(90,477.22,365)">1900m</text><text x="477.22" y="345.00" font-size="10">107m</text><text x="569.39" y="365" font-size="10" transform="rotate(90,569.39,365)">2310m</text><text x="569.39" y="45.00" font-size="10">112m</text><text x="573.89" y="365" font-size="10" transform="rotate(90,573.89,365)">2330m</text><text x="573.89" y="45.00" font-size="10">112m</text><text x="579.96" y="365" font-size="10" transform="rotate(90,579.96,365)">2357m</text><text x="579.96" y="105.00" font-size="10">111m</text><text x="583.33" y="365" font-size="10" transform="rotate(90,583.33,365)">2372m</text><text x="583.33" y="105.00" font-size="10">111m</text><text x="615.93" y="365" font-size="10" transform="rotate(90,615.93,365)">2517m</text><text x="615.93" y="165.00" font-size="10">110m</text><text x="622.67" y="365" font-size="10" transform="rotate(90,622.67,365)">2547m</text><text x="622.67" y="105.00" font-size="10">111m</text><text x="627.17" y="365" font-size="10" transform="rotate(90,627.17,365)">2567m</text><text x="627.17" y="165.00" font-size="10">110m</text><text x="633.91" y="365" font-size="10" transform="rotate(90,633.91,365)">2597m</text><text x="633.91" y="285.00" font-size="10">108m</text><text x="714.84" y="365" font-size="10" transform="rotate(90,714.84,365)">2957m</text><text x="714.84" y="165.00" font-size="10">110m</text><text x="739.57" y="365" font-size="10" transform="rotate(90,739.57,365)">3067m</text><text x="739.57" y="285.00" font-size="10">108m</text><text x="768.80" y="365" font-size="10" transform="rotate(90,768.80,365)">3197m</text><text x="768.80" y="225.00" font-size="10">109m</text><text x="795.78" y="365" font-size="10" transform="rotate(90,795.78,365)">3317m</text><text x="795.78" y="225.00" font-size="10">109m</text><text x="842.99" y="365" font-size="10" transform="rotate(90,842.99,365)">3527m</text><text x="842.99" y="225.00" font-size="10">109m</text><text x="847.03" y="365" font-size="10" transform="rotate(90,847.03,365)">3545m</text><text x="847.03" y="225.00" font-size="10">109m</text><text x="855.58" y="365" font-size="10" transform="rotate(90,855.58,365)">3583m</text><text x="855.58" y="165.00" font-size="10">110m</text><text x="878.06" y="365" font-size="10" transform="rotate(90,878.06,365)">3683m</text><text x="878.06" y="165.00" font-size="10">110m</text><text x="900.54" y="365" font-size="10" transform="rotate(90,900.54,365)">3783m</text><text x="900.54" y="165.00" font-size="10">110m</text><text x="905.04" y="365" font-size="10" transform="rotate(90,905.04,365)">3803m</text><text x="905.04" y="225.00" font-size="10">109m</text><text x="920.77" y="365" font-size="10" transform="rotate(90,920.77,365)">3873m</text><text x="920.77" y="165.00" font-size="10">110m</text><text x="950.00" y="365" font-size="10" transform="rotate(90,950.00,365)">4003m</text><text x="950.00" y="225.00" font-size="10">109m</text>
</svg>
